<svg xmlns="http://www.w3.org/2000/svg" width="1000" height="1000">
<circle cx="383" cy="886" r="27" style="fill:rgb(115,81,255)"/>
<circle cx="386" cy="492" r="49" style="fill:rgb(205,186,171)"/>
<circle cx="690" cy="59" r="13" style="fill:rgb(70,124,194)"/>
<circle cx="172" cy="736" r="11" style="fill:rgb(232,231,141)"/>
<circle cx="782" cy="530" r="12" style="fill:rgb(99,51,159)"/>
<circle cx="929" cy="802" r="22" style="fill:rgb(50,13,183)"/>
<circle cx="393" cy="456" r="11" style="fill:rgb(90,37,93)"/>
<circle cx="421" cy="919" r="34" style="fill:rgb(233,94,212)"/>
<circle cx="315" cy="370" r="13" style="fill:rgb(198,155,180)"/>
<circle cx="956" cy="873" r="12" style="fill:rgb(130,116,65)"/>
<circle cx="305" cy="925" r="34" style="fill:rgb(135,112,233)"/>
<circle cx="846" cy="729" r="13" style="fill:rgb(225,252,103)"/>
<circle cx="582" cy="545" r="14" style="fill:rgb(151,234,220)"/>
<circle cx="43" cy="750" r="37" style="fill:rgb(56,92,42)"/>
<circle cx="788" cy="584" r="3" style="fill:rgb(251,50,175)"/>
<circle cx="932" cy="60" r="26" style="fill:rgb(24,219,92)"/>
<circle cx="226" cy="586" r="44" style="fill:rgb(67,251,250)"/>
<circle cx="434" cy="378" r="17" style="fill:rgb(41,209,230)"/>
<circle cx="317" cy="492" r="2" style="fill:rgb(148,117,216)"/>
<circle cx="286" cy="441" r="15" style="fill:rgb(249,92,187)"/>
<circle cx="440" cy="729" r="31" style="fill:rgb(149,177,235)"/>
<circle cx="481" cy="675" r="9" style="fill:rgb(239,247,0)"/>
<circle cx="497" cy="353" r="36" style="fill:rgb(229,202,11)"/>
<circle cx="219" cy="624" r="28" style="fill:rgb(71,100,189)"/>
<circle cx="503" cy="19" r="20" style="fill:rgb(168,28,123)"/>
<circle cx="340" cy="149" r="46" style="fill:rgb(115,90,197)"/>
<circle cx="846" cy="451" r="21" style="fill:rgb(99,59,112)"/>
<circle cx="764" cy="228" r="41" style="fill:rgb(158,9,220)"/>
<circle cx="34" cy="764" r="24" style="fill:rgb(242,27,16)"/>
<circle cx="743" cy="491" r="27" style="fill:rgb(205,227,80)"/>
<circle cx="432" cy="551" r="37" style="fill:rgb(92,187,111)"/>
<circle cx="474" cy="121" r="8" style="fill:rgb(155,125,245)"/>
<circle cx="235" cy="793" r="18" style="fill:rgb(28,127,35)"/>
<circle cx="928" cy="529" r="26" style="fill:rgb(164,27,19)"/>
<circle cx="613" cy="538" r="6" style="fill:rgb(232,152,50)"/>
<circle cx="128" cy="688" r="19" style="fill:rgb(77,61,52)"/>
<circle cx="324" cy="743" r="20" style="fill:rgb(119,250,203)"/>
<circle cx="772" cy="725" r="44" style="fill:rgb(134,33,43)"/>
<circle cx="954" cy="786" r="19" style="fill:rgb(162,190,112)"/>
<circle cx="197" cy="507" r="5" style="fill:rgb(4,92,211)"/>
<circle cx="622" cy="828" r="49" style="fill:rgb(175,226,240)"/>
<circle cx="340" cy="422" r="11" style="fill:rgb(50,21,73)"/>
<circle cx="661" cy="730" r="28" style="fill:rgb(169,8,112)"/>
<circle cx="444" cy="626" r="22" style="fill:rgb(41,84,72)"/>
<circle cx="282" cy="258" r="24" style="fill:rgb(213,14,24)"/>
<circle cx="600" cy="36" r="2" style="fill:rgb(91,243,142)"/>
<circle cx="468" cy="71" r="23" style="fill:rgb(155,9,66)"/>
<circle cx="933" cy="894" r="10" style="fill:rgb(51,175,205)"/>
<circle cx="899" cy="996" r="9" style="fill:rgb(45,173,212)"/>
<circle cx="190" cy="95" r="26" style="fill:rgb(50,28,236)"/>
<circle cx="90" cy="684" r="26" style="fill:rgb(246,32,35)"/>
<circle cx="445" cy="756" r="29" style="fill:rgb(178,7,4)"/>
<circle cx="348" cy="172" r="9" style="fill:rgb(185,32,186)"/>
<circle cx="342" cy="587" r="6" style="fill:rgb(5,241,236)"/>
<circle cx="321" cy="255" r="19" style="fill:rgb(183,153,80)"/>
<circle cx="939" cy="811" r="40" style="fill:rgb(211,217,52)"/>
<circle cx="127" cy="150" r="34" style="fill:rgb(242,16,168)"/>
<circle cx="422" cy="269" r="46" style="fill:rgb(1,190,180)"/>
<circle cx="292" cy="972" r="22" style="fill:rgb(250,73,105)"/>
<circle cx="222" cy="299" r="40" style="fill:rgb(26,218,105)"/>
<circle cx="298" cy="190" r="24" style="fill:rgb(126,81,37)"/>
<circle cx="819" cy="336" r="32" style="fill:rgb(83,58,148)"/>
<circle cx="379" cy="769" r="23" style="fill:rgb(144,50,87)"/>
<circle cx="860" cy="142" r="29" style="fill:rgb(188,233,229)"/>
<circle cx="621" cy="567" r="4" style="fill:rgb(245,233,226)"/>
<circle cx="326" cy="259" r="44" style="fill:rgb(170,210,178)"/>
<circle cx="784" cy="21" r="42" style="fill:rgb(84,216,53)"/>
<circle cx="872" cy="908" r="8" style="fill:rgb(130,100,152)"/>
<circle cx="753" cy="248" r="3" style="fill:rgb(117,101,112)"/>
<circle cx="890" cy="754" r="17" style="fill:rgb(98,128,41)"/>
<circle cx="500" cy="46" r="38" style="fill:rgb(165,137,78)"/>
<circle cx="303" cy="33" r="13" style="fill:rgb(81,173,172)"/>
<circle cx="686" cy="125" r="2" style="fill:rgb(236,23,228)"/>
<circle cx="157" cy="729" r="36" style="fill:rgb(12,102,241)"/>
<circle cx="460" cy="304" r="28" style="fill:rgb(187,34,252)"/>
<circle cx="556" cy="902" r="44" style="fill:rgb(97,11,99)"/>
<circle cx="39" cy="2" r="28" style="fill:rgb(131,180,105)"/>
<circle cx="647" cy="538" r="9" style="fill:rgb(175,39,22)"/>
<circle cx="339" cy="692" r="15" style="fill:rgb(31,184,109)"/>
<circle cx="49" cy="964" r="35" style="fill:rgb(141,239,79)"/>
<circle cx="177" cy="900" r="38" style="fill:rgb(99,53,193)"/>
<circle cx="367" cy="988" r="42" style="fill:rgb(131,103,216)"/>
<circle cx="829" cy="390" r="32" style="fill:rgb(236,69,57)"/>
<circle cx="826" cy="232" r="11" style="fill:rgb(10,248,157)"/>
<circle cx="23" cy="761" r="31" style="fill:rgb(165,150,193)"/>
<circle cx="996" cy="367" r="27" style="fill:rgb(170,130,202)"/>
<circle cx="524" cy="57" r="14" style="fill:rgb(144,205,22)"/>
<circle cx="312" cy="386" r="0" style="fill:rgb(122,166,242)"/>
<circle cx="916" cy="552" r="28" style="fill:rgb(153,178,194)"/>
<circle cx="647" cy="970" r="1" style="fill:rgb(8,207,97)"/>
<circle cx="857" cy="627" r="12" style="fill:rgb(94,110,3)"/>
<circle cx="512" cy="90" r="12" style="fill:rgb(215,106,25)"/>
<circle cx="189" cy="274" r="5" style="fill:rgb(153,76,121)"/>
<circle cx="987" cy="888" r="38" style="fill:rgb(86,154,212)"/>
<circle cx="856" cy="417" r="6" style="fill:rgb(228,217,205)"/>
<circle cx="205" cy="59" r="17" style="fill:rgb(198,1,255)"/>
<circle cx="873" cy="458" r="23" style="fill:rgb(21,1,67)"/>
<circle cx="607" cy="478" r="7" style="fill:rgb(2,135,97)"/>
<circle cx="100" cy="459" r="18" style="fill:rgb(158,105,252)"/>
<circle cx="74" cy="233" r="7" style="fill:rgb(113,101,166)"/>
<circle cx="270" cy="699" r="17" style="fill:rgb(207,113,75)"/>
<circle cx="622" cy="794" r="23" style="fill:rgb(167,79,118)"/>
<circle cx="682" cy="390" r="42" style="fill:rgb(255,129,235)"/>
<circle cx="521" cy="157" r="24" style="fill:rgb(195,155,103)"/>
<circle cx="231" cy="21" r="37" style="fill:rgb(140,126,78)"/>
<circle cx="98" cy="325" r="31" style="fill:rgb(124,140,106)"/>
<circle cx="231" cy="139" r="46" style="fill:rgb(60,2,244)"/>
<circle cx="218" cy="21" r="20" style="fill:rgb(22,236,243)"/>
<circle cx="977" cy="685" r="36" style="fill:rgb(0,16,139)"/>
<circle cx="207" cy="759" r="7" style="fill:rgb(80,91,23)"/>
<circle cx="127" cy="950" r="36" style="fill:rgb(152,10,97)"/>
<circle cx="563" cy="49" r="44" style="fill:rgb(167,13,190)"/>
<circle cx="291" cy="375" r="5" style="fill:rgb(14,213,152)"/>
<circle cx="993" cy="918" r="5" style="fill:rgb(242,214,246)"/>
<circle cx="717" cy="30" r="43" style="fill:rgb(22,142,33)"/>
<circle cx="486" cy="253" r="43" style="fill:rgb(2,198,185)"/>
<circle cx="179" cy="377" r="12" style="fill:rgb(31,112,151)"/>
<circle cx="710" cy="732" r="44" style="fill:rgb(137,26,43)"/>
<circle cx="137" cy="691" r="3" style="fill:rgb(7,13,216)"/>
<circle cx="925" cy="291" r="10" style="fill:rgb(194,161,164)"/>
<circle cx="963" cy="55" r="40" style="fill:rgb(146,210,152)"/>
<circle cx="571" cy="661" r="33" style="fill:rgb(213,85,209)"/>
<circle cx="604" cy="851" r="5" style="fill:rgb(194,188,247)"/>
<circle cx="485" cy="6" r="45" style="fill:rgb(239,229,32)"/>
<circle cx="967" cy="226" r="13" style="fill:rgb(221,164,77)"/>
<circle cx="865" cy="560" r="36" style="fill:rgb(83,26,238)"/>
<circle cx="211" cy="342" r="32" style="fill:rgb(76,59,121)"/>
<circle cx="270" cy="984" r="22" style="fill:rgb(251,106,104)"/>
<circle cx="283" cy="72" r="48" style="fill:rgb(6,71,43)"/>
<circle cx="950" cy="30" r="23" style="fill:rgb(210,235,178)"/>
<circle cx="47" cy="924" r="32" style="fill:rgb(59,192,84)"/>
<circle cx="954" cy="443" r="48" style="fill:rgb(78,248,246)"/>
<circle cx="159" cy="262" r="12" style="fill:rgb(115,17,8)"/>
<circle cx="723" cy="324" r="22" style="fill:rgb(34,10,167)"/>
<circle cx="821" cy="457" r="15" style="fill:rgb(91,3,160)"/>
<circle cx="269" cy="218" r="1" style="fill:rgb(71,93,205)"/>
<circle cx="907" cy="959" r="28" style="fill:rgb(86,213,112)"/>
<circle cx="84" cy="308" r="34" style="fill:rgb(234,15,152)"/>
<circle cx="898" cy="715" r="2" style="fill:rgb(83,13,167)"/>
<circle cx="506" cy="10" r="16" style="fill:rgb(176,181,219)"/>
<circle cx="0" cy="378" r="9" style="fill:rgb(93,9,90)"/>
<circle cx="338" cy="989" r="26" style="fill:rgb(163,251,183)"/>
<circle cx="787" cy="231" r="32" style="fill:rgb(154,49,99)"/>
<circle cx="850" cy="179" r="40" style="fill:rgb(206,118,91)"/>
<circle cx="813" cy="857" r="44" style="fill:rgb(77,33,107)"/>
<circle cx="720" cy="433" r="32" style="fill:rgb(37,207,55)"/>
<circle cx="296" cy="825" r="4" style="fill:rgb(98,156,215)"/>
<circle cx="297" cy="32" r="34" style="fill:rgb(109,74,79)"/>
<circle cx="57" cy="708" r="45" style="fill:rgb(31,74,233)"/>
<circle cx="483" cy="776" r="4" style="fill:rgb(49,13,123)"/>
<circle cx="932" cy="382" r="21" style="fill:rgb(202,91,188)"/>
<circle cx="682" cy="211" r="35" style="fill:rgb(222,61,82)"/>
<circle cx="990" cy="583" r="14" style="fill:rgb(212,196,76)"/>
<circle cx="892" cy="525" r="28" style="fill:rgb(151,181,18)"/>
<circle cx="136" cy="360" r="18" style="fill:rgb(219,97,224)"/>
<circle cx="582" cy="621" r="10" style="fill:rgb(67,200,113)"/>
<circle cx="815" cy="570" r="37" style="fill:rgb(181,168,138)"/>
<circle cx="783" cy="350" r="7" style="fill:rgb(9,51,166)"/>
<circle cx="269" cy="71" r="1" style="fill:rgb(29,238,240)"/>
<circle cx="639" cy="398" r="38" style="fill:rgb(2,73,129)"/>
<circle cx="890" cy="976" r="49" style="fill:rgb(248,227,71)"/>
<circle cx="777" cy="99" r="7" style="fill:rgb(182,152,185)"/>
<circle cx="641" cy="735" r="18" style="fill:rgb(34,168,75)"/>
<circle cx="776" cy="805" r="16" style="fill:rgb(4,26,144)"/>
<circle cx="308" cy="593" r="28" style="fill:rgb(21,75,72)"/>
<circle cx="774" cy="445" r="0" style="fill:rgb(21,37,203)"/>
<circle cx="412" cy="127" r="32" style="fill:rgb(109,69,70)"/>
<circle cx="439" cy="334" r="21" style="fill:rgb(63,169,141)"/>
<circle cx="354" cy="761" r="12" style="fill:rgb(44,117,164)"/>
<circle cx="852" cy="850" r="12" style="fill:rgb(186,127,57)"/>
<circle cx="154" cy="173" r="15" style="fill:rgb(234,43,140)"/>
<circle cx="790" cy="263" r="41" style="fill:rgb(100,245,97)"/>
<circle cx="859" cy="828" r="21" style="fill:rgb(144,91,144)"/>
<circle cx="590" cy="341" r="20" style="fill:rgb(168,17,119)"/>
<circle cx="69" cy="517" r="11" style="fill:rgb(59,135,96)"/>
<circle cx="300" cy="506" r="38" style="fill:rgb(219,116,161)"/>
<circle cx="32" cy="154" r="4" style="fill:rgb(131,143,29)"/>
<circle cx="412" cy="538" r="19" style="fill:rgb(204,202,148)"/>
<circle cx="844" cy="760" r="49" style="fill:rgb(94,145,138)"/>
<circle cx="326" cy="886" r="33" style="fill:rgb(183,25,223)"/>
<circle cx="152" cy="621" r="43" style="fill:rgb(142,105,221)"/>
<circle cx="631" cy="673" r="14" style="fill:rgb(87,84,151)"/>
<circle cx="877" cy="313" r="33" style="fill:rgb(174,5,155)"/>
<circle cx="155" cy="793" r="18" style="fill:rgb(188,192,21)"/>
<circle cx="823" cy="286" r="21" style="fill:rgb(158,77,12)"/>
<circle cx="245" cy="181" r="11" style="fill:rgb(230,243,2)"/>
<circle cx="100" cy="954" r="25" style="fill:rgb(204,122,40)"/>
<circle cx="659" cy="919" r="39" style="fill:rgb(52,157,102)"/>
<circle cx="551" cy="976" r="33" style="fill:rgb(83,157,135)"/>
<circle cx="304" cy="956" r="31" style="fill:rgb(91,130,107)"/>
<circle cx="967" cy="912" r="42" style="fill:rgb(1,230,196)"/>
<circle cx="131" cy="2" r="24" style="fill:rgb(215,118,96)"/>
<circle cx="183" cy="377" r="37" style="fill:rgb(96,13,237)"/>
<circle cx="62" cy="125" r="33" style="fill:rgb(141,48,106)"/>
<circle cx="141" cy="153" r="26" style="fill:rgb(50,244,209)"/>
<circle cx="485" cy="948" r="5" style="fill:rgb(110,93,183)"/>
<circle cx="898" cy="160" r="12" style="fill:rgb(24,55,216)"/>
<circle cx="641" cy="902" r="10" style="fill:rgb(200,150,191)"/>
<circle cx="789" cy="140" r="8" style="fill:rgb(131,234,205)"/>
<circle cx="493" cy="431" r="10" style="fill:rgb(60,49,90)"/>
<circle cx="613" cy="391" r="38" style="fill:rgb(222,61,19)"/>
<circle cx="829" cy="671" r="30" style="fill:rgb(247,135,171)"/>
<circle cx="24" cy="88" r="4" style="fill:rgb(130,201,120)"/>
<circle cx="969" cy="710" r="23" style="fill:rgb(222,1,191)"/>
<circle cx="587" cy="279" r="44" style="fill:rgb(17,43,239)"/>
<circle cx="339" cy="464" r="42" style="fill:rgb(34,22,251)"/>
<circle cx="349" cy="915" r="36" style="fill:rgb(169,163,242)"/>
<circle cx="133" cy="387" r="22" style="fill:rgb(55,245,187)"/>
<circle cx="519" cy="742" r="4" style="fill:rgb(132,20,59)"/>
<circle cx="259" cy="63" r="18" style="fill:rgb(1,208,85)"/>
<circle cx="705" cy="404" r="33" style="fill:rgb(175,94,163)"/>
<circle cx="315" cy="435" r="37" style="fill:rgb(21,61,242)"/>
<circle cx="487" cy="802" r="37" style="fill:rgb(250,201,90)"/>
<circle cx="205" cy="960" r="4" style="fill:rgb(239,253,165)"/>
<circle cx="403" cy="816" r="42" style="fill:rgb(85,66,53)"/>
<circle cx="443" cy="579" r="11" style="fill:rgb(56,226,207)"/>
<circle cx="700" cy="45" r="32" style="fill:rgb(43,163,159)"/>
<circle cx="589" cy="386" r="3" style="fill:rgb(130,164,250)"/>
<circle cx="36" cy="506" r="7" style="fill:rgb(108,73,112)"/>
<circle cx="921" cy="820" r="30" style="fill:rgb(118,202,242)"/>
<circle cx="123" cy="437" r="33" style="fill:rgb(28,173,8)"/>
<circle cx="931" cy="17" r="9" style="fill:rgb(77,180,56)"/>
<circle cx="69" cy="745" r="45" style="fill:rgb(30,83,135)"/>
<circle cx="569" cy="559" r="1" style="fill:rgb(140,156,43)"/>
<circle cx="340" cy="925" r="43" style="fill:rgb(172,35,105)"/>
<circle cx="527" cy="566" r="28" style="fill:rgb(196,234,140)"/>
<circle cx="124" cy="333" r="13" style="fill:rgb(98,35,202)"/>
<circle cx="794" cy="568" r="15" style="fill:rgb(125,46,239)"/>
<circle cx="437" cy="263" r="48" style="fill:rgb(230,211,186)"/>
<circle cx="513" cy="631" r="28" style="fill:rgb(177,124,139)"/>
<circle cx="346" cy="683" r="38" style="fill:rgb(249,223,68)"/>
<circle cx="421" cy="972" r="26" style="fill:rgb(154,14,61)"/>
<circle cx="356" cy="952" r="45" style="fill:rgb(0,38,123)"/>
<circle cx="111" cy="883" r="3" style="fill:rgb(13,17,150)"/>
<circle cx="216" cy="339" r="24" style="fill:rgb(48,212,226)"/>
<circle cx="267" cy="294" r="13" style="fill:rgb(21,231,220)"/>
<circle cx="650" cy="292" r="32" style="fill:rgb(116,7,150)"/>
<circle cx="953" cy="635" r="45" style="fill:rgb(254,107,101)"/>
<circle cx="937" cy="570" r="26" style="fill:rgb(60,104,161)"/>
<circle cx="83" cy="800" r="42" style="fill:rgb(57,96,152)"/>
<circle cx="939" cy="763" r="35" style="fill:rgb(24,49,110)"/>
<circle cx="164" cy="523" r="1" style="fill:rgb(125,255,226)"/>
<circle cx="339" cy="704" r="15" style="fill:rgb(82,174,185)"/>
<circle cx="79" cy="591" r="47" style="fill:rgb(71,100,123)"/>
<circle cx="561" cy="919" r="31" style="fill:rgb(173,112,11)"/>
<circle cx="494" cy="819" r="43" style="fill:rgb(205,163,88)"/>
<circle cx="187" cy="639" r="43" style="fill:rgb(22,20,226)"/>
<circle cx="320" cy="680" r="48" style="fill:rgb(70,122,64)"/>
<circle cx="463" cy="98" r="45" style="fill:rgb(18,121,203)"/>
<circle cx="142" cy="66" r="48" style="fill:rgb(57,16,114)"/>
<circle cx="853" cy="966" r="47" style="fill:rgb(108,35,160)"/>
<circle cx="516" cy="86" r="12" style="fill:rgb(167,117,76)"/>
<circle cx="553" cy="197" r="32" style="fill:rgb(27,179,239)"/>
<circle cx="107" cy="498" r="49" style="fill:rgb(194,197,154)"/>
<circle cx="334" cy="3" r="25" style="fill:rgb(144,140,13)"/>
<circle cx="763" cy="633" r="15" style="fill:rgb(0,61,134)"/>
<circle cx="185" cy="897" r="0" style="fill:rgb(217,168,89)"/>
<circle cx="349" cy="313" r="29" style="fill:rgb(154,76,122)"/>
<circle cx="585" cy="775" r="15" style="fill:rgb(170,106,242)"/>
<circle cx="892" cy="616" r="29" style="fill:rgb(65,136,209)"/>
<circle cx="366" cy="515" r="45" style="fill:rgb(177,140,224)"/>
<circle cx="847" cy="613" r="26" style="fill:rgb(28,6,138)"/>
<circle cx="629" cy="763" r="0" style="fill:rgb(60,197,8)"/>
<circle cx="775" cy="982" r="44" style="fill:rgb(228,248,26)"/>
<circle cx="518" cy="565" r="44" style="fill:rgb(27,126,154)"/>
<circle cx="908" cy="853" r="12" style="fill:rgb(143,126,178)"/>
<circle cx="432" cy="534" r="7" style="fill:rgb(82,210,229)"/>
<circle cx="596" cy="815" r="34" style="fill:rgb(152,132,214)"/>
<circle cx="465" cy="451" r="16" style="fill:rgb(81,31,29)"/>
<circle cx="187" cy="861" r="2" style="fill:rgb(125,16,216)"/>
<circle cx="879" cy="620" r="41" style="fill:rgb(61,140,36)"/>
<circle cx="135" cy="708" r="12" style="fill:rgb(206,78,172)"/>
<circle cx="163" cy="466" r="11" style="fill:rgb(196,195,119)"/>
<circle cx="234" cy="332" r="40" style="fill:rgb(190,181,209)"/>
<circle cx="339" cy="880" r="44" style="fill:rgb(53,157,214)"/>
<circle cx="382" cy="444" r="25" style="fill:rgb(179,242,95)"/>
<circle cx="951" cy="873" r="11" style="fill:rgb(177,176,169)"/>
<circle cx="813" cy="683" r="49" style="fill:rgb(81,39,150)"/>
<circle cx="464" cy="769" r="46" style="fill:rgb(123,128,175)"/>
<circle cx="740" cy="411" r="23" style="fill:rgb(19,145,108)"/>
<circle cx="793" cy="439" r="31" style="fill:rgb(188,82,19)"/>
<circle cx="371" cy="418" r="46" style="fill:rgb(118,219,164)"/>
<circle cx="567" cy="697" r="0" style="fill:rgb(243,138,47)"/>
<circle cx="433" cy="490" r="7" style="fill:rgb(132,205,113)"/>
<circle cx="523" cy="690" r="42" style="fill:rgb(3,45,93)"/>
<circle cx="335" cy="422" r="40" style="fill:rgb(144,211,79)"/>
<circle cx="339" cy="766" r="25" style="fill:rgb(152,101,84)"/>
<circle cx="52" cy="220" r="7" style="fill:rgb(68,119,23)"/>
<circle cx="540" cy="721" r="26" style="fill:rgb(101,133,55)"/>
<circle cx="878" cy="728" r="19" style="fill:rgb(162,187,126)"/>
<circle cx="520" cy="563" r="21" style="fill:rgb(252,187,104)"/>
<circle cx="267" cy="223" r="32" style="fill:rgb(196,247,187)"/>
<circle cx="553" cy="563" r="8" style="fill:rgb(166,120,183)"/>
<circle cx="198" cy="660" r="18" style="fill:rgb(40,81,61)"/>
<circle cx="503" cy="887" r="4" style="fill:rgb(177,201,177)"/>
<circle cx="823" cy="929" r="46" style="fill:rgb(196,198,152)"/>
<circle cx="12" cy="209" r="5" style="fill:rgb(131,214,238)"/>
<circle cx="134" cy="759" r="31" style="fill:rgb(126,149,153)"/>
<circle cx="638" cy="171" r="13" style="fill:rgb(238,123,214)"/>
<circle cx="484" cy="755" r="11" style="fill:rgb(34,140,199)"/>
<circle cx="923" cy="603" r="0" style="fill:rgb(176,128,86)"/>
<circle cx="952" cy="12" r="4" style="fill:rgb(63,47,62)"/>
<circle cx="525" cy="894" r="17" style="fill:rgb(78,236,194)"/>
<circle cx="560" cy="626" r="14" style="fill:rgb(109,17,145)"/>
<circle cx="748" cy="421" r="20" style="fill:rgb(65,95,248)"/>
<circle cx="832" cy="786" r="4" style="fill:rgb(153,226,52)"/>
<circle cx="127" cy="410" r="18" style="fill:rgb(87,105,16)"/>
<circle cx="341" cy="446" r="24" style="fill:rgb(194,229,106)"/>
<circle cx="901" cy="165" r="39" style="fill:rgb(155,58,158)"/>
<circle cx="732" cy="238" r="49" style="fill:rgb(153,192,58)"/>
<circle cx="457" cy="832" r="48" style="fill:rgb(69,97,79)"/>
<circle cx="169" cy="497" r="19" style="fill:rgb(90,168,227)"/>
<circle cx="18" cy="470" r="35" style="fill:rgb(232,0,94)"/>
<circle cx="754" cy="533" r="7" style="fill:rgb(223,32,102)"/>
<circle cx="21" cy="485" r="38" style="fill:rgb(88,230,164)"/>
<circle cx="634" cy="647" r="25" style="fill:rgb(255,189,206)"/>
<circle cx="142" cy="630" r="41" style="fill:rgb(199,144,200)"/>
<circle cx="554" cy="538" r="42" style="fill:rgb(36,226,6)"/>
<circle cx="34" cy="685" r="8" style="fill:rgb(174,20,172)"/>
<circle cx="644" cy="802" r="45" style="fill:rgb(248,234,223)"/>
<circle cx="925" cy="157" r="35" style="fill:rgb(10,124,20)"/>
<circle cx="296" cy="986" r="30" style="fill:rgb(248,145,219)"/>
<circle cx="512" cy="956" r="39" style="fill:rgb(198,96,184)"/>
<circle cx="428" cy="482" r="7" style="fill:rgb(88,144,1)"/>
<circle cx="797" cy="220" r="39" style="fill:rgb(254,157,126)"/>
<circle cx="782" cy="282" r="23" style="fill:rgb(53,68,119)"/>
<circle cx="417" cy="884" r="3" style="fill:rgb(147,20,210)"/>
<circle cx="350" cy="236" r="10" style="fill:rgb(68,154,110)"/>
<circle cx="164" cy="23" r="41" style="fill:rgb(233,191,225)"/>
<circle cx="410" cy="260" r="40" style="fill:rgb(126,195,35)"/>
<circle cx="916" cy="89" r="31" style="fill:rgb(247,214,161)"/>
<circle cx="806" cy="375" r="1" style="fill:rgb(175,178,210)"/>
<circle cx="265" cy="377" r="16" style="fill:rgb(144,101,65)"/>
<circle cx="134" cy="833" r="36" style="fill:rgb(79,74,103)"/>
<circle cx="697" cy="316" r="10" style="fill:rgb(183,178,239)"/>
<circle cx="986" cy="486" r="8" style="fill:rgb(55,165,102)"/>
<circle cx="136" cy="435" r="43" style="fill:rgb(149,194,55)"/>
<circle cx="367" cy="212" r="46" style="fill:rgb(14,212,189)"/>
<circle cx="95" cy="674" r="0" style="fill:rgb(247,34,104)"/>
<circle cx="630" cy="851" r="25" style="fill:rgb(138,10,79)"/>
<circle cx="161" cy="676" r="34" style="fill:rgb(9,27,163)"/>
<circle cx="135" cy="931" r="1" style="fill:rgb(244,136,121)"/>
<circle cx="900" cy="688" r="11" style="fill:rgb(132,254,145)"/>
<circle cx="114" cy="69" r="28" style="fill:rgb(96,68,134)"/>
<circle cx="625" cy="682" r="33" style="fill:rgb(102,45,227)"/>
<circle cx="949" cy="790" r="1" style="fill:rgb(179,176,226)"/>
<circle cx="799" cy="447" r="29" style="fill:rgb(14,20,93)"/>
<circle cx="799" cy="528" r="39" style="fill:rgb(69,196,75)"/>
<circle cx="766" cy="990" r="34" style="fill:rgb(58,103,220)"/>
<circle cx="776" cy="384" r="21" style="fill:rgb(153,150,172)"/>
<circle cx="684" cy="539" r="40" style="fill:rgb(67,255,2)"/>
<circle cx="781" cy="926" r="0" style="fill:rgb(250,100,54)"/>
<circle cx="264" cy="579" r="8" style="fill:rgb(165,48,58)"/>
<circle cx="769" cy="711" r="27" style="fill:rgb(137,65,168)"/>
<circle cx="142" cy="34" r="22" style="fill:rgb(229,155,110)"/>
<circle cx="265" cy="632" r="49" style="fill:rgb(227,91,184)"/>
<circle cx="558" cy="601" r="2" style="fill:rgb(8,123,114)"/>
<circle cx="38" cy="227" r="14" style="fill:rgb(180,121,142)"/>
<circle cx="430" cy="554" r="19" style="fill:rgb(47,243,215)"/>
<circle cx="495" cy="801" r="13" style="fill:rgb(175,62,116)"/>
<circle cx="29" cy="335" r="42" style="fill:rgb(215,179,232)"/>
<circle cx="7" cy="353" r="13" style="fill:rgb(158,161,228)"/>
<circle cx="96" cy="551" r="6" style="fill:rgb(110,147,49)"/>
<circle cx="69" cy="481" r="45" style="fill:rgb(146,177,142)"/>
<circle cx="369" cy="736" r="8" style="fill:rgb(66,56,38)"/>
<circle cx="295" cy="733" r="14" style="fill:rgb(67,44,169)"/>
<circle cx="251" cy="724" r="10" style="fill:rgb(148,90,227)"/>
<circle cx="193" cy="834" r="26" style="fill:rgb(49,217,85)"/>
<circle cx="394" cy="366" r="6" style="fill:rgb(253,104,135)"/>
<circle cx="795" cy="826" r="34" style="fill:rgb(115,20,72)"/>
<circle cx="882" cy="155" r="23" style="fill:rgb(144,15,202)"/>
<circle cx="505" cy="946" r="16" style="fill:rgb(123,207,224)"/>
<circle cx="790" cy="408" r="40" style="fill:rgb(32,121,35)"/>
<circle cx="93" cy="555" r="1" style="fill:rgb(75,216,98)"/>
<circle cx="651" cy="291" r="38" style="fill:rgb(227,215,72)"/>
<circle cx="275" cy="681" r="6" style="fill:rgb(200,1,35)"/>
<circle cx="842" cy="834" r="49" style="fill:rgb(24,181,44)"/>
<circle cx="664" cy="43" r="22" style="fill:rgb(67,51,237)"/>
<circle cx="542" cy="256" r="40" style="fill:rgb(96,243,160)"/>
<circle cx="258" cy="510" r="28" style="fill:rgb(246,169,219)"/>
<circle cx="294" cy="924" r="6" style="fill:rgb(82,157,77)"/>
<circle cx="253" cy="319" r="21" style="fill:rgb(211,72,60)"/>
<circle cx="719" cy="896" r="17" style="fill:rgb(116,131,130)"/>
<circle cx="729" cy="746" r="36" style="fill:rgb(42,74,29)"/>
<circle cx="858" cy="852" r="8" style="fill:rgb(206,2,141)"/>
<circle cx="513" cy="344" r="30" style="fill:rgb(245,147,255)"/>
<circle cx="658" cy="200" r="28" style="fill:rgb(201,219,118)"/>
<circle cx="53" cy="179" r="7" style="fill:rgb(84,79,58)"/>
<circle cx="302" cy="904" r="8" style="fill:rgb(0,218,110)"/>
<circle cx="86" cy="485" r="6" style="fill:rgb(2,115,124)"/>
<circle cx="751" cy="637" r="1" style="fill:rgb(241,18,80)"/>
<circle cx="392" cy="69" r="0" style="fill:rgb(31,30,52)"/>
<circle cx="381" cy="556" r="37" style="fill:rgb(76,120,94)"/>
<circle cx="951" cy="983" r="18" style="fill:rgb(171,79,233)"/>
<circle cx="514" cy="861" r="32" style="fill:rgb(148,111,1)"/>
<circle cx="129" cy="911" r="44" style="fill:rgb(206,240,49)"/>
<circle cx="78" cy="137" r="26" style="fill:rgb(118,0,164)"/>
<circle cx="186" cy="141" r="34" style="fill:rgb(185,226,65)"/>
<circle cx="639" cy="833" r="48" style="fill:rgb(38,20,223)"/>
<circle cx="55" cy="310" r="35" style="fill:rgb(157,195,188)"/>
</svg>