<svg xmlns="http://www.w3.org/2000/svg" width="2000" height="2000">
<rect x = "0" y = "0" width="2000" height="2000" style="fill:rgb(50,50,50)"/>
<line x1="343" y1="1000" x2="15" y2="1000" style="stroke:rgb(255,255,255);stroke-width:2"/>
<line x1="343" y1="1000" x2="15" y2="1212" style="stroke:rgb(255,255,255);stroke-width:2"/>
<line x1="343" y1="1000" x2="15" y2="788" style="stroke:rgb(255,255,255);stroke-width:2"/>
<line x1="343" y1="1000" x2="15" y2="1424" style="stroke:rgb(255,255,255);stroke-width:2"/>
<line x1="343" y1="1000" x2="15" y2="576" style="stroke:rgb(255,255,255);stroke-width:2"/>
<line x1="343" y1="1000" x2="15" y2="1636" style="stroke:rgb(255,255,255);stroke-width:2"/>
<line x1="343" y1="1000" x2="15" y2="364" style="stroke:rgb(255,255,255);stroke-width:2"/>
<line x1="343" y1="1000" x2="15" y2="1848" style="stroke:rgb(255,255,255);stroke-width:2"/>
<line x1="343" y1="1000" x2="15" y2="152" style="stroke:rgb(255,255,255);stroke-width:2"/>
<line x1="343" y1="1212" x2="15" y2="1000" style="stroke:rgb(255,255,255);stroke-width:2"/>
<line x1="343" y1="1212" x2="15" y2="1212" style="stroke:rgb(255,255,255);stroke-width:2"/>
<line x1="343" y1="1212" x2="15" y2="788" style="stroke:rgb(255,255,255);stroke-width:2"/>
<line x1="343" y1="1212" x2="15" y2="1424" style="stroke:rgb(255,255,255);stroke-width:2"/>
<line x1="343" y1="1212" x2="15" y2="576" style="stroke:rgb(255,255,255);stroke-width:2"/>
<line x1="343" y1="1212" x2="15" y2="1636" style="stroke:rgb(255,255,255);stroke-width:2"/>
<line x1="343" y1="1212" x2="15" y2="364" style="stroke:rgb(255,255,255);stroke-width:2"/>
<line x1="343" y1="1212" x2="15" y2="1848" style="stroke:rgb(255,255,255);stroke-width:2"/>
<line x1="343" y1="1212" x2="15" y2="152" style="stroke:rgb(255,255,255);stroke-width:2"/>
<line x1="343" y1="788" x2="15" y2="1000" style="stroke:rgb(255,255,255);stroke-width:2"/>
<line x1="343" y1="788" x2="15" y2="1212" style="stroke:rgb(255,255,255);stroke-width:2"/>
<line x1="343" y1="788" x2="15" y2="788" style="stroke:rgb(255,255,255);stroke-width:2"/>
<line x1="343" y1="788" x2="15" y2="1424" style="stroke:rgb(255,255,255);stroke-width:2"/>
<line x1="343" y1="788" x2="15" y2="576" style="stroke:rgb(255,255,255);stroke-width:2"/>
<line x1="343" y1="788" x2="15" y2="1636" style="stroke:rgb(255,255,255);stroke-width:2"/>
<line x1="343" y1="788" x2="15" y2="364" style="stroke:rgb(255,255,255);stroke-width:2"/>
<line x1="343" y1="788" x2="15" y2="1848" style="stroke:rgb(255,255,255);stroke-width:2"/>
<line x1="343" y1="788" x2="15" y2="152" style="stroke:rgb(255,255,255);stroke-width:2"/>
<line x1="343" y1="1424" x2="15" y2="1000" style="stroke:rgb(255,255,255);stroke-width:2"/>
<line x1="343" y1="1424" x2="15" y2="1212" style="stroke:rgb(255,255,255);stroke-width:2"/>
<line x1="343" y1="1424" x2="15" y2="788" style="stroke:rgb(255,255,255);stroke-width:2"/>
<line x1="343" y1="1424" x2="15" y2="1424" style="stroke:rgb(255,255,255);stroke-width:2"/>
<line x1="343" y1="1424" x2="15" y2="576" style="stroke:rgb(255,255,255);stroke-width:2"/>
<line x1="343" y1="1424" x2="15" y2="1636" style="stroke:rgb(255,255,255);stroke-width:2"/>
<line x1="343" y1="1424" x2="15" y2="364" style="stroke:rgb(255,255,255);stroke-width:2"/>
<line x1="343" y1="1424" x2="15" y2="1848" style="stroke:rgb(255,255,255);stroke-width:2"/>
<line x1="343" y1="1424" x2="15" y2="152" style="stroke:rgb(255,255,255);stroke-width:2"/>
<line x1="343" y1="576" x2="15" y2="1000" style="stroke:rgb(255,255,255);stroke-width:2"/>
<line x1="343" y1="576" x2="15" y2="1212" style="stroke:rgb(255,255,255);stroke-width:2"/>
<line x1="343" y1="576" x2="15" y2="788" style="stroke:rgb(255,255,255);stroke-width:2"/>
<line x1="343" y1="576" x2="15" y2="1424" style="stroke:rgb(255,255,255);stroke-width:2"/>
<line x1="343" y1="576" x2="15" y2="576" style="stroke:rgb(255,255,255);stroke-width:2"/>
<line x1="343" y1="576" x2="15" y2="1636" style="stroke:rgb(255,255,255);stroke-width:2"/>
<line x1="343" y1="576" x2="15" y2="364" style="stroke:rgb(255,255,255);stroke-width:2"/>
<line x1="343" y1="576" x2="15" y2="1848" style="stroke:rgb(255,255,255);stroke-width:2"/>
<line x1="343" y1="576" x2="15" y2="152" style="stroke:rgb(255,255,255);stroke-width:2"/>
<line x1="343" y1="1636" x2="15" y2="1000" style="stroke:rgb(255,255,255);stroke-width:2"/>
<line x1="343" y1="1636" x2="15" y2="1212" style="stroke:rgb(255,255,255);stroke-width:2"/>
<line x1="343" y1="1636" x2="15" y2="788" style="stroke:rgb(255,255,255);stroke-width:2"/>
<line x1="343" y1="1636" x2="15" y2="1424" style="stroke:rgb(255,255,255);stroke-width:2"/>
<line x1="343" y1="1636" x2="15" y2="576" style="stroke:rgb(255,255,255);stroke-width:2"/>
<line x1="343" y1="1636" x2="15" y2="1636" style="stroke:rgb(255,255,255);stroke-width:2"/>
<line x1="343" y1="1636" x2="15" y2="364" style="stroke:rgb(255,255,255);stroke-width:2"/>
<line x1="343" y1="1636" x2="15" y2="1848" style="stroke:rgb(255,255,255);stroke-width:2"/>
<line x1="343" y1="1636" x2="15" y2="152" style="stroke:rgb(255,255,255);stroke-width:2"/>
<line x1="343" y1="364" x2="15" y2="1000" style="stroke:rgb(255,255,255);stroke-width:2"/>
<line x1="343" y1="364" x2="15" y2="1212" style="stroke:rgb(255,255,255);stroke-width:2"/>
<line x1="343" y1="364" x2="15" y2="788" style="stroke:rgb(255,255,255);stroke-width:2"/>
<line x1="343" y1="364" x2="15" y2="1424" style="stroke:rgb(255,255,255);stroke-width:2"/>
<line x1="343" y1="364" x2="15" y2="576" style="stroke:rgb(255,255,255);stroke-width:2"/>
<line x1="343" y1="364" x2="15" y2="1636" style="stroke:rgb(255,255,255);stroke-width:2"/>
<line x1="343" y1="364" x2="15" y2="364" style="stroke:rgb(255,255,255);stroke-width:2"/>
<line x1="343" y1="364" x2="15" y2="1848" style="stroke:rgb(255,255,255);stroke-width:2"/>
<line x1="343" y1="364" x2="15" y2="152" style="stroke:rgb(255,255,255);stroke-width:2"/>
<line x1="343" y1="1848" x2="15" y2="1000" style="stroke:rgb(255,255,255);stroke-width:2"/>
<line x1="343" y1="1848" x2="15" y2="1212" style="stroke:rgb(255,255,255);stroke-width:2"/>
<line x1="343" y1="1848" x2="15" y2="788" style="stroke:rgb(255,255,255);stroke-width:2"/>
<line x1="343" y1="1848" x2="15" y2="1424" style="stroke:rgb(255,255,255);stroke-width:2"/>
<line x1="343" y1="1848" x2="15" y2="576" style="stroke:rgb(255,255,255);stroke-width:2"/>
<line x1="343" y1="1848" x2="15" y2="1636" style="stroke:rgb(255,255,255);stroke-width:2"/>
<line x1="343" y1="1848" x2="15" y2="364" style="stroke:rgb(255,255,255);stroke-width:2"/>
<line x1="343" y1="1848" x2="15" y2="1848" style="stroke:rgb(255,255,255);stroke-width:2"/>
<line x1="343" y1="1848" x2="15" y2="152" style="stroke:rgb(255,255,255);stroke-width:2"/>
<line x1="343" y1="152" x2="15" y2="1000" style="stroke:rgb(255,255,255);stroke-width:2"/>
<line x1="343" y1="152" x2="15" y2="1212" style="stroke:rgb(255,255,255);stroke-width:2"/>
<line x1="343" y1="152" x2="15" y2="788" style="stroke:rgb(255,255,255);stroke-width:2"/>
<line x1="343" y1="152" x2="15" y2="1424" style="stroke:rgb(255,255,255);stroke-width:2"/>
<line x1="343" y1="152" x2="15" y2="576" style="stroke:rgb(255,255,255);stroke-width:2"/>
<line x1="343" y1="152" x2="15" y2="1636" style="stroke:rgb(255,255,255);stroke-width:2"/>
<line x1="343" y1="152" x2="15" y2="364" style="stroke:rgb(255,255,255);stroke-width:2"/>
<line x1="343" y1="152" x2="15" y2="1848" style="stroke:rgb(255,255,255);stroke-width:2"/>
<line x1="343" y1="152" x2="15" y2="152" style="stroke:rgb(255,255,255);stroke-width:2"/>
<line x1="671" y1="1000" x2="343" y2="1000" style="stroke:rgb(255,255,255);stroke-width:2"/>
<line x1="671" y1="1000" x2="343" y2="1212" style="stroke:rgb(255,255,255);stroke-width:2"/>
<line x1="671" y1="1000" x2="343" y2="788" style="stroke:rgb(255,255,255);stroke-width:2"/>
<line x1="671" y1="1000" x2="343" y2="1424" style="stroke:rgb(255,255,255);stroke-width:2"/>
<line x1="671" y1="1000" x2="343" y2="576" style="stroke:rgb(255,255,255);stroke-width:2"/>
<line x1="671" y1="1000" x2="343" y2="1636" style="stroke:rgb(255,255,255);stroke-width:2"/>
<line x1="671" y1="1000" x2="343" y2="364" style="stroke:rgb(255,255,255);stroke-width:2"/>
<line x1="671" y1="1000" x2="343" y2="1848" style="stroke:rgb(255,255,255);stroke-width:2"/>
<line x1="671" y1="1000" x2="343" y2="152" style="stroke:rgb(255,255,255);stroke-width:2"/>
<line x1="671" y1="1212" x2="343" y2="1000" style="stroke:rgb(255,255,255);stroke-width:2"/>
<line x1="671" y1="1212" x2="343" y2="1212" style="stroke:rgb(255,255,255);stroke-width:2"/>
<line x1="671" y1="1212" x2="343" y2="788" style="stroke:rgb(255,255,255);stroke-width:2"/>
<line x1="671" y1="1212" x2="343" y2="1424" style="stroke:rgb(255,255,255);stroke-width:2"/>
<line x1="671" y1="1212" x2="343" y2="576" style="stroke:rgb(255,255,255);stroke-width:2"/>
<line x1="671" y1="1212" x2="343" y2="1636" style="stroke:rgb(255,255,255);stroke-width:2"/>
<line x1="671" y1="1212" x2="343" y2="364" style="stroke:rgb(255,255,255);stroke-width:2"/>
<line x1="671" y1="1212" x2="343" y2="1848" style="stroke:rgb(255,255,255);stroke-width:2"/>
<line x1="671" y1="1212" x2="343" y2="152" style="stroke:rgb(255,255,255);stroke-width:2"/>
<line x1="671" y1="788" x2="343" y2="1000" style="stroke:rgb(255,255,255);stroke-width:2"/>
<line x1="671" y1="788" x2="343" y2="1212" style="stroke:rgb(255,255,255);stroke-width:2"/>
<line x1="671" y1="788" x2="343" y2="788" style="stroke:rgb(255,255,255);stroke-width:2"/>
<line x1="671" y1="788" x2="343" y2="1424" style="stroke:rgb(255,255,255);stroke-width:2"/>
<line x1="671" y1="788" x2="343" y2="576" style="stroke:rgb(255,255,255);stroke-width:2"/>
<line x1="671" y1="788" x2="343" y2="1636" style="stroke:rgb(255,255,255);stroke-width:2"/>
<line x1="671" y1="788" x2="343" y2="364" style="stroke:rgb(255,255,255);stroke-width:2"/>
<line x1="671" y1="788" x2="343" y2="1848" style="stroke:rgb(255,255,255);stroke-width:2"/>
<line x1="671" y1="788" x2="343" y2="152" style="stroke:rgb(255,255,255);stroke-width:2"/>
<line x1="671" y1="1424" x2="343" y2="1000" style="stroke:rgb(255,255,255);stroke-width:2"/>
<line x1="671" y1="1424" x2="343" y2="1212" style="stroke:rgb(255,255,255);stroke-width:2"/>
<line x1="671" y1="1424" x2="343" y2="788" style="stroke:rgb(255,255,255);stroke-width:2"/>
<line x1="671" y1="1424" x2="343" y2="1424" style="stroke:rgb(255,255,255);stroke-width:2"/>
<line x1="671" y1="1424" x2="343" y2="576" style="stroke:rgb(255,255,255);stroke-width:2"/>
<line x1="671" y1="1424" x2="343" y2="1636" style="stroke:rgb(255,255,255);stroke-width:2"/>
<line x1="671" y1="1424" x2="343" y2="364" style="stroke:rgb(255,255,255);stroke-width:2"/>
<line x1="671" y1="1424" x2="343" y2="1848" style="stroke:rgb(255,255,255);stroke-width:2"/>
<line x1="671" y1="1424" x2="343" y2="152" style="stroke:rgb(255,255,255);stroke-width:2"/>
<line x1="671" y1="576" x2="343" y2="1000" style="stroke:rgb(255,255,255);stroke-width:2"/>
<line x1="671" y1="576" x2="343" y2="1212" style="stroke:rgb(255,255,255);stroke-width:2"/>
<line x1="671" y1="576" x2="343" y2="788" style="stroke:rgb(255,255,255);stroke-width:2"/>
<line x1="671" y1="576" x2="343" y2="1424" style="stroke:rgb(255,255,255);stroke-width:2"/>
<line x1="671" y1="576" x2="343" y2="576" style="stroke:rgb(255,255,255);stroke-width:2"/>
<line x1="671" y1="576" x2="343" y2="1636" style="stroke:rgb(255,255,255);stroke-width:2"/>
<line x1="671" y1="576" x2="343" y2="364" style="stroke:rgb(255,255,255);stroke-width:2"/>
<line x1="671" y1="576" x2="343" y2="1848" style="stroke:rgb(255,255,255);stroke-width:2"/>
<line x1="671" y1="576" x2="343" y2="152" style="stroke:rgb(255,255,255);stroke-width:2"/>
<line x1="671" y1="1636" x2="343" y2="1000" style="stroke:rgb(255,255,255);stroke-width:2"/>
<line x1="671" y1="1636" x2="343" y2="1212" style="stroke:rgb(255,255,255);stroke-width:2"/>
<line x1="671" y1="1636" x2="343" y2="788" style="stroke:rgb(255,255,255);stroke-width:2"/>
<line x1="671" y1="1636" x2="343" y2="1424" style="stroke:rgb(255,255,255);stroke-width:2"/>
<line x1="671" y1="1636" x2="343" y2="576" style="stroke:rgb(255,255,255);stroke-width:2"/>
<line x1="671" y1="1636" x2="343" y2="1636" style="stroke:rgb(255,255,255);stroke-width:2"/>
<line x1="671" y1="1636" x2="343" y2="364" style="stroke:rgb(255,255,255);stroke-width:2"/>
<line x1="671" y1="1636" x2="343" y2="1848" style="stroke:rgb(255,255,255);stroke-width:2"/>
<line x1="671" y1="1636" x2="343" y2="152" style="stroke:rgb(255,255,255);stroke-width:2"/>
<line x1="671" y1="364" x2="343" y2="1000" style="stroke:rgb(255,255,255);stroke-width:2"/>
<line x1="671" y1="364" x2="343" y2="1212" style="stroke:rgb(255,255,255);stroke-width:2"/>
<line x1="671" y1="364" x2="343" y2="788" style="stroke:rgb(255,255,255);stroke-width:2"/>
<line x1="671" y1="364" x2="343" y2="1424" style="stroke:rgb(255,255,255);stroke-width:2"/>
<line x1="671" y1="364" x2="343" y2="576" style="stroke:rgb(255,255,255);stroke-width:2"/>
<line x1="671" y1="364" x2="343" y2="1636" style="stroke:rgb(255,255,255);stroke-width:2"/>
<line x1="671" y1="364" x2="343" y2="364" style="stroke:rgb(255,255,255);stroke-width:2"/>
<line x1="671" y1="364" x2="343" y2="1848" style="stroke:rgb(255,255,255);stroke-width:2"/>
<line x1="671" y1="364" x2="343" y2="152" style="stroke:rgb(255,255,255);stroke-width:2"/>
<line x1="671" y1="1848" x2="343" y2="1000" style="stroke:rgb(255,255,255);stroke-width:2"/>
<line x1="671" y1="1848" x2="343" y2="1212" style="stroke:rgb(255,255,255);stroke-width:2"/>
<line x1="671" y1="1848" x2="343" y2="788" style="stroke:rgb(255,255,255);stroke-width:2"/>
<line x1="671" y1="1848" x2="343" y2="1424" style="stroke:rgb(255,255,255);stroke-width:2"/>
<line x1="671" y1="1848" x2="343" y2="576" style="stroke:rgb(255,255,255);stroke-width:2"/>
<line x1="671" y1="1848" x2="343" y2="1636" style="stroke:rgb(255,255,255);stroke-width:2"/>
<line x1="671" y1="1848" x2="343" y2="364" style="stroke:rgb(255,255,255);stroke-width:2"/>
<line x1="671" y1="1848" x2="343" y2="1848" style="stroke:rgb(255,255,255);stroke-width:2"/>
<line x1="671" y1="1848" x2="343" y2="152" style="stroke:rgb(255,255,255);stroke-width:2"/>
<line x1="671" y1="152" x2="343" y2="1000" style="stroke:rgb(255,255,255);stroke-width:2"/>
<line x1="671" y1="152" x2="343" y2="1212" style="stroke:rgb(255,255,255);stroke-width:2"/>
<line x1="671" y1="152" x2="343" y2="788" style="stroke:rgb(255,255,255);stroke-width:2"/>
<line x1="671" y1="152" x2="343" y2="1424" style="stroke:rgb(255,255,255);stroke-width:2"/>
<line x1="671" y1="152" x2="343" y2="576" style="stroke:rgb(255,255,255);stroke-width:2"/>
<line x1="671" y1="152" x2="343" y2="1636" style="stroke:rgb(255,255,255);stroke-width:2"/>
<line x1="671" y1="152" x2="343" y2="364" style="stroke:rgb(255,255,255);stroke-width:2"/>
<line x1="671" y1="152" x2="343" y2="1848" style="stroke:rgb(255,255,255);stroke-width:2"/>
<line x1="671" y1="152" x2="343" y2="152" style="stroke:rgb(255,255,255);stroke-width:2"/>
<line x1="1000" y1="1000" x2="671" y2="1000" style="stroke:rgb(255,255,255);stroke-width:2"/>
<line x1="1000" y1="1000" x2="671" y2="1212" style="stroke:rgb(255,255,255);stroke-width:2"/>
<line x1="1000" y1="1000" x2="671" y2="788" style="stroke:rgb(255,255,255);stroke-width:2"/>
<line x1="1000" y1="1000" x2="671" y2="1424" style="stroke:rgb(255,255,255);stroke-width:2"/>
<line x1="1000" y1="1000" x2="671" y2="576" style="stroke:rgb(255,255,255);stroke-width:2"/>
<line x1="1000" y1="1000" x2="671" y2="1636" style="stroke:rgb(255,255,255);stroke-width:2"/>
<line x1="1000" y1="1000" x2="671" y2="364" style="stroke:rgb(255,255,255);stroke-width:2"/>
<line x1="1000" y1="1000" x2="671" y2="1848" style="stroke:rgb(255,255,255);stroke-width:2"/>
<line x1="1000" y1="1000" x2="671" y2="152" style="stroke:rgb(255,255,255);stroke-width:2"/>
<line x1="1000" y1="1212" x2="671" y2="1000" style="stroke:rgb(255,255,255);stroke-width:2"/>
<line x1="1000" y1="1212" x2="671" y2="1212" style="stroke:rgb(255,255,255);stroke-width:2"/>
<line x1="1000" y1="1212" x2="671" y2="788" style="stroke:rgb(255,255,255);stroke-width:2"/>
<line x1="1000" y1="1212" x2="671" y2="1424" style="stroke:rgb(255,255,255);stroke-width:2"/>
<line x1="1000" y1="1212" x2="671" y2="576" style="stroke:rgb(255,255,255);stroke-width:2"/>
<line x1="1000" y1="1212" x2="671" y2="1636" style="stroke:rgb(255,255,255);stroke-width:2"/>
<line x1="1000" y1="1212" x2="671" y2="364" style="stroke:rgb(255,255,255);stroke-width:2"/>
<line x1="1000" y1="1212" x2="671" y2="1848" style="stroke:rgb(255,255,255);stroke-width:2"/>
<line x1="1000" y1="1212" x2="671" y2="152" style="stroke:rgb(255,255,255);stroke-width:2"/>
<line x1="1000" y1="788" x2="671" y2="1000" style="stroke:rgb(255,255,255);stroke-width:2"/>
<line x1="1000" y1="788" x2="671" y2="1212" style="stroke:rgb(255,255,255);stroke-width:2"/>
<line x1="1000" y1="788" x2="671" y2="788" style="stroke:rgb(255,255,255);stroke-width:2"/>
<line x1="1000" y1="788" x2="671" y2="1424" style="stroke:rgb(255,255,255);stroke-width:2"/>
<line x1="1000" y1="788" x2="671" y2="576" style="stroke:rgb(255,255,255);stroke-width:2"/>
<line x1="1000" y1="788" x2="671" y2="1636" style="stroke:rgb(255,255,255);stroke-width:2"/>
<line x1="1000" y1="788" x2="671" y2="364" style="stroke:rgb(255,255,255);stroke-width:2"/>
<line x1="1000" y1="788" x2="671" y2="1848" style="stroke:rgb(255,255,255);stroke-width:2"/>
<line x1="1000" y1="788" x2="671" y2="152" style="stroke:rgb(255,255,255);stroke-width:2"/>
<line x1="1000" y1="1424" x2="671" y2="1000" style="stroke:rgb(255,255,255);stroke-width:2"/>
<line x1="1000" y1="1424" x2="671" y2="1212" style="stroke:rgb(255,255,255);stroke-width:2"/>
<line x1="1000" y1="1424" x2="671" y2="788" style="stroke:rgb(255,255,255);stroke-width:2"/>
<line x1="1000" y1="1424" x2="671" y2="1424" style="stroke:rgb(255,255,255);stroke-width:2"/>
<line x1="1000" y1="1424" x2="671" y2="576" style="stroke:rgb(255,255,255);stroke-width:2"/>
<line x1="1000" y1="1424" x2="671" y2="1636" style="stroke:rgb(255,255,255);stroke-width:2"/>
<line x1="1000" y1="1424" x2="671" y2="364" style="stroke:rgb(255,255,255);stroke-width:2"/>
<line x1="1000" y1="1424" x2="671" y2="1848" style="stroke:rgb(255,255,255);stroke-width:2"/>
<line x1="1000" y1="1424" x2="671" y2="152" style="stroke:rgb(255,255,255);stroke-width:2"/>
<line x1="1000" y1="576" x2="671" y2="1000" style="stroke:rgb(255,255,255);stroke-width:2"/>
<line x1="1000" y1="576" x2="671" y2="1212" style="stroke:rgb(255,255,255);stroke-width:2"/>
<line x1="1000" y1="576" x2="671" y2="788" style="stroke:rgb(255,255,255);stroke-width:2"/>
<line x1="1000" y1="576" x2="671" y2="1424" style="stroke:rgb(255,255,255);stroke-width:2"/>
<line x1="1000" y1="576" x2="671" y2="576" style="stroke:rgb(255,255,255);stroke-width:2"/>
<line x1="1000" y1="576" x2="671" y2="1636" style="stroke:rgb(255,255,255);stroke-width:2"/>
<line x1="1000" y1="576" x2="671" y2="364" style="stroke:rgb(255,255,255);stroke-width:2"/>
<line x1="1000" y1="576" x2="671" y2="1848" style="stroke:rgb(255,255,255);stroke-width:2"/>
<line x1="1000" y1="576" x2="671" y2="152" style="stroke:rgb(255,255,255);stroke-width:2"/>
<line x1="1000" y1="1636" x2="671" y2="1000" style="stroke:rgb(255,255,255);stroke-width:2"/>
<line x1="1000" y1="1636" x2="671" y2="1212" style="stroke:rgb(255,255,255);stroke-width:2"/>
<line x1="1000" y1="1636" x2="671" y2="788" style="stroke:rgb(255,255,255);stroke-width:2"/>
<line x1="1000" y1="1636" x2="671" y2="1424" style="stroke:rgb(255,255,255);stroke-width:2"/>
<line x1="1000" y1="1636" x2="671" y2="576" style="stroke:rgb(255,255,255);stroke-width:2"/>
<line x1="1000" y1="1636" x2="671" y2="1636" style="stroke:rgb(255,255,255);stroke-width:2"/>
<line x1="1000" y1="1636" x2="671" y2="364" style="stroke:rgb(255,255,255);stroke-width:2"/>
<line x1="1000" y1="1636" x2="671" y2="1848" style="stroke:rgb(255,255,255);stroke-width:2"/>
<line x1="1000" y1="1636" x2="671" y2="152" style="stroke:rgb(255,255,255);stroke-width:2"/>
<line x1="1000" y1="364" x2="671" y2="1000" style="stroke:rgb(255,255,255);stroke-width:2"/>
<line x1="1000" y1="364" x2="671" y2="1212" style="stroke:rgb(255,255,255);stroke-width:2"/>
<line x1="1000" y1="364" x2="671" y2="788" style="stroke:rgb(255,255,255);stroke-width:2"/>
<line x1="1000" y1="364" x2="671" y2="1424" style="stroke:rgb(255,255,255);stroke-width:2"/>
<line x1="1000" y1="364" x2="671" y2="576" style="stroke:rgb(255,255,255);stroke-width:2"/>
<line x1="1000" y1="364" x2="671" y2="1636" style="stroke:rgb(255,255,255);stroke-width:2"/>
<line x1="1000" y1="364" x2="671" y2="364" style="stroke:rgb(255,255,255);stroke-width:2"/>
<line x1="1000" y1="364" x2="671" y2="1848" style="stroke:rgb(255,255,255);stroke-width:2"/>
<line x1="1000" y1="364" x2="671" y2="152" style="stroke:rgb(255,255,255);stroke-width:2"/>
<line x1="1000" y1="1848" x2="671" y2="1000" style="stroke:rgb(255,255,255);stroke-width:2"/>
<line x1="1000" y1="1848" x2="671" y2="1212" style="stroke:rgb(255,255,255);stroke-width:2"/>
<line x1="1000" y1="1848" x2="671" y2="788" style="stroke:rgb(255,255,255);stroke-width:2"/>
<line x1="1000" y1="1848" x2="671" y2="1424" style="stroke:rgb(255,255,255);stroke-width:2"/>
<line x1="1000" y1="1848" x2="671" y2="576" style="stroke:rgb(255,255,255);stroke-width:2"/>
<line x1="1000" y1="1848" x2="671" y2="1636" style="stroke:rgb(255,255,255);stroke-width:2"/>
<line x1="1000" y1="1848" x2="671" y2="364" style="stroke:rgb(255,255,255);stroke-width:2"/>
<line x1="1000" y1="1848" x2="671" y2="1848" style="stroke:rgb(255,255,255);stroke-width:2"/>
<line x1="1000" y1="1848" x2="671" y2="152" style="stroke:rgb(255,255,255);stroke-width:2"/>
<line x1="1000" y1="152" x2="671" y2="1000" style="stroke:rgb(255,255,255);stroke-width:2"/>
<line x1="1000" y1="152" x2="671" y2="1212" style="stroke:rgb(255,255,255);stroke-width:2"/>
<line x1="1000" y1="152" x2="671" y2="788" style="stroke:rgb(255,255,255);stroke-width:2"/>
<line x1="1000" y1="152" x2="671" y2="1424" style="stroke:rgb(255,255,255);stroke-width:2"/>
<line x1="1000" y1="152" x2="671" y2="576" style="stroke:rgb(255,255,255);stroke-width:2"/>
<line x1="1000" y1="152" x2="671" y2="1636" style="stroke:rgb(255,255,255);stroke-width:2"/>
<line x1="1000" y1="152" x2="671" y2="364" style="stroke:rgb(255,255,255);stroke-width:2"/>
<line x1="1000" y1="152" x2="671" y2="1848" style="stroke:rgb(255,255,255);stroke-width:2"/>
<line x1="1000" y1="152" x2="671" y2="152" style="stroke:rgb(255,255,255);stroke-width:2"/>
<line x1="1328" y1="1000" x2="1000" y2="1000" style="stroke:rgb(255,255,255);stroke-width:2"/>
<line x1="1328" y1="1000" x2="1000" y2="1212" style="stroke:rgb(255,255,255);stroke-width:2"/>
<line x1="1328" y1="1000" x2="1000" y2="788" style="stroke:rgb(255,255,255);stroke-width:2"/>
<line x1="1328" y1="1000" x2="1000" y2="1424" style="stroke:rgb(255,255,255);stroke-width:2"/>
<line x1="1328" y1="1000" x2="1000" y2="576" style="stroke:rgb(255,255,255);stroke-width:2"/>
<line x1="1328" y1="1000" x2="1000" y2="1636" style="stroke:rgb(255,255,255);stroke-width:2"/>
<line x1="1328" y1="1000" x2="1000" y2="364" style="stroke:rgb(255,255,255);stroke-width:2"/>
<line x1="1328" y1="1000" x2="1000" y2="1848" style="stroke:rgb(255,255,255);stroke-width:2"/>
<line x1="1328" y1="1000" x2="1000" y2="152" style="stroke:rgb(255,255,255);stroke-width:2"/>
<line x1="1328" y1="1212" x2="1000" y2="1000" style="stroke:rgb(255,255,255);stroke-width:2"/>
<line x1="1328" y1="1212" x2="1000" y2="1212" style="stroke:rgb(255,255,255);stroke-width:2"/>
<line x1="1328" y1="1212" x2="1000" y2="788" style="stroke:rgb(255,255,255);stroke-width:2"/>
<line x1="1328" y1="1212" x2="1000" y2="1424" style="stroke:rgb(255,255,255);stroke-width:2"/>
<line x1="1328" y1="1212" x2="1000" y2="576" style="stroke:rgb(255,255,255);stroke-width:2"/>
<line x1="1328" y1="1212" x2="1000" y2="1636" style="stroke:rgb(255,255,255);stroke-width:2"/>
<line x1="1328" y1="1212" x2="1000" y2="364" style="stroke:rgb(255,255,255);stroke-width:2"/>
<line x1="1328" y1="1212" x2="1000" y2="1848" style="stroke:rgb(255,255,255);stroke-width:2"/>
<line x1="1328" y1="1212" x2="1000" y2="152" style="stroke:rgb(255,255,255);stroke-width:2"/>
<line x1="1328" y1="788" x2="1000" y2="1000" style="stroke:rgb(255,255,255);stroke-width:2"/>
<line x1="1328" y1="788" x2="1000" y2="1212" style="stroke:rgb(255,255,255);stroke-width:2"/>
<line x1="1328" y1="788" x2="1000" y2="788" style="stroke:rgb(255,255,255);stroke-width:2"/>
<line x1="1328" y1="788" x2="1000" y2="1424" style="stroke:rgb(255,255,255);stroke-width:2"/>
<line x1="1328" y1="788" x2="1000" y2="576" style="stroke:rgb(255,255,255);stroke-width:2"/>
<line x1="1328" y1="788" x2="1000" y2="1636" style="stroke:rgb(255,255,255);stroke-width:2"/>
<line x1="1328" y1="788" x2="1000" y2="364" style="stroke:rgb(255,255,255);stroke-width:2"/>
<line x1="1328" y1="788" x2="1000" y2="1848" style="stroke:rgb(255,255,255);stroke-width:2"/>
<line x1="1328" y1="788" x2="1000" y2="152" style="stroke:rgb(255,255,255);stroke-width:2"/>
<line x1="1328" y1="1424" x2="1000" y2="1000" style="stroke:rgb(255,255,255);stroke-width:2"/>
<line x1="1328" y1="1424" x2="1000" y2="1212" style="stroke:rgb(255,255,255);stroke-width:2"/>
<line x1="1328" y1="1424" x2="1000" y2="788" style="stroke:rgb(255,255,255);stroke-width:2"/>
<line x1="1328" y1="1424" x2="1000" y2="1424" style="stroke:rgb(255,255,255);stroke-width:2"/>
<line x1="1328" y1="1424" x2="1000" y2="576" style="stroke:rgb(255,255,255);stroke-width:2"/>
<line x1="1328" y1="1424" x2="1000" y2="1636" style="stroke:rgb(255,255,255);stroke-width:2"/>
<line x1="1328" y1="1424" x2="1000" y2="364" style="stroke:rgb(255,255,255);stroke-width:2"/>
<line x1="1328" y1="1424" x2="1000" y2="1848" style="stroke:rgb(255,255,255);stroke-width:2"/>
<line x1="1328" y1="1424" x2="1000" y2="152" style="stroke:rgb(255,255,255);stroke-width:2"/>
<line x1="1328" y1="576" x2="1000" y2="1000" style="stroke:rgb(255,255,255);stroke-width:2"/>
<line x1="1328" y1="576" x2="1000" y2="1212" style="stroke:rgb(255,255,255);stroke-width:2"/>
<line x1="1328" y1="576" x2="1000" y2="788" style="stroke:rgb(255,255,255);stroke-width:2"/>
<line x1="1328" y1="576" x2="1000" y2="1424" style="stroke:rgb(255,255,255);stroke-width:2"/>
<line x1="1328" y1="576" x2="1000" y2="576" style="stroke:rgb(255,255,255);stroke-width:2"/>
<line x1="1328" y1="576" x2="1000" y2="1636" style="stroke:rgb(255,255,255);stroke-width:2"/>
<line x1="1328" y1="576" x2="1000" y2="364" style="stroke:rgb(255,255,255);stroke-width:2"/>
<line x1="1328" y1="576" x2="1000" y2="1848" style="stroke:rgb(255,255,255);stroke-width:2"/>
<line x1="1328" y1="576" x2="1000" y2="152" style="stroke:rgb(255,255,255);stroke-width:2"/>
<line x1="1328" y1="1636" x2="1000" y2="1000" style="stroke:rgb(255,255,255);stroke-width:2"/>
<line x1="1328" y1="1636" x2="1000" y2="1212" style="stroke:rgb(255,255,255);stroke-width:2"/>
<line x1="1328" y1="1636" x2="1000" y2="788" style="stroke:rgb(255,255,255);stroke-width:2"/>
<line x1="1328" y1="1636" x2="1000" y2="1424" style="stroke:rgb(255,255,255);stroke-width:2"/>
<line x1="1328" y1="1636" x2="1000" y2="576" style="stroke:rgb(255,255,255);stroke-width:2"/>
<line x1="1328" y1="1636" x2="1000" y2="1636" style="stroke:rgb(255,255,255);stroke-width:2"/>
<line x1="1328" y1="1636" x2="1000" y2="364" style="stroke:rgb(255,255,255);stroke-width:2"/>
<line x1="1328" y1="1636" x2="1000" y2="1848" style="stroke:rgb(255,255,255);stroke-width:2"/>
<line x1="1328" y1="1636" x2="1000" y2="152" style="stroke:rgb(255,255,255);stroke-width:2"/>
<line x1="1328" y1="364" x2="1000" y2="1000" style="stroke:rgb(255,255,255);stroke-width:2"/>
<line x1="1328" y1="364" x2="1000" y2="1212" style="stroke:rgb(255,255,255);stroke-width:2"/>
<line x1="1328" y1="364" x2="1000" y2="788" style="stroke:rgb(255,255,255);stroke-width:2"/>
<line x1="1328" y1="364" x2="1000" y2="1424" style="stroke:rgb(255,255,255);stroke-width:2"/>
<line x1="1328" y1="364" x2="1000" y2="576" style="stroke:rgb(255,255,255);stroke-width:2"/>
<line x1="1328" y1="364" x2="1000" y2="1636" style="stroke:rgb(255,255,255);stroke-width:2"/>
<line x1="1328" y1="364" x2="1000" y2="364" style="stroke:rgb(255,255,255);stroke-width:2"/>
<line x1="1328" y1="364" x2="1000" y2="1848" style="stroke:rgb(255,255,255);stroke-width:2"/>
<line x1="1328" y1="364" x2="1000" y2="152" style="stroke:rgb(255,255,255);stroke-width:2"/>
<line x1="1328" y1="1848" x2="1000" y2="1000" style="stroke:rgb(255,255,255);stroke-width:2"/>
<line x1="1328" y1="1848" x2="1000" y2="1212" style="stroke:rgb(255,255,255);stroke-width:2"/>
<line x1="1328" y1="1848" x2="1000" y2="788" style="stroke:rgb(255,255,255);stroke-width:2"/>
<line x1="1328" y1="1848" x2="1000" y2="1424" style="stroke:rgb(255,255,255);stroke-width:2"/>
<line x1="1328" y1="1848" x2="1000" y2="576" style="stroke:rgb(255,255,255);stroke-width:2"/>
<line x1="1328" y1="1848" x2="1000" y2="1636" style="stroke:rgb(255,255,255);stroke-width:2"/>
<line x1="1328" y1="1848" x2="1000" y2="364" style="stroke:rgb(255,255,255);stroke-width:2"/>
<line x1="1328" y1="1848" x2="1000" y2="1848" style="stroke:rgb(255,255,255);stroke-width:2"/>
<line x1="1328" y1="1848" x2="1000" y2="152" style="stroke:rgb(255,255,255);stroke-width:2"/>
<line x1="1328" y1="152" x2="1000" y2="1000" style="stroke:rgb(255,255,255);stroke-width:2"/>
<line x1="1328" y1="152" x2="1000" y2="1212" style="stroke:rgb(255,255,255);stroke-width:2"/>
<line x1="1328" y1="152" x2="1000" y2="788" style="stroke:rgb(255,255,255);stroke-width:2"/>
<line x1="1328" y1="152" x2="1000" y2="1424" style="stroke:rgb(255,255,255);stroke-width:2"/>
<line x1="1328" y1="152" x2="1000" y2="576" style="stroke:rgb(255,255,255);stroke-width:2"/>
<line x1="1328" y1="152" x2="1000" y2="1636" style="stroke:rgb(255,255,255);stroke-width:2"/>
<line x1="1328" y1="152" x2="1000" y2="364" style="stroke:rgb(255,255,255);stroke-width:2"/>
<line x1="1328" y1="152" x2="1000" y2="1848" style="stroke:rgb(255,255,255);stroke-width:2"/>
<line x1="1328" y1="152" x2="1000" y2="152" style="stroke:rgb(255,255,255);stroke-width:2"/>
<line x1="1656" y1="1000" x2="1328" y2="1000" style="stroke:rgb(255,255,255);stroke-width:2"/>
<line x1="1656" y1="1000" x2="1328" y2="1212" style="stroke:rgb(255,255,255);stroke-width:2"/>
<line x1="1656" y1="1000" x2="1328" y2="788" style="stroke:rgb(255,255,255);stroke-width:2"/>
<line x1="1656" y1="1000" x2="1328" y2="1424" style="stroke:rgb(255,255,255);stroke-width:2"/>
<line x1="1656" y1="1000" x2="1328" y2="576" style="stroke:rgb(255,255,255);stroke-width:2"/>
<line x1="1656" y1="1000" x2="1328" y2="1636" style="stroke:rgb(255,255,255);stroke-width:2"/>
<line x1="1656" y1="1000" x2="1328" y2="364" style="stroke:rgb(255,255,255);stroke-width:2"/>
<line x1="1656" y1="1000" x2="1328" y2="1848" style="stroke:rgb(255,255,255);stroke-width:2"/>
<line x1="1656" y1="1000" x2="1328" y2="152" style="stroke:rgb(255,255,255);stroke-width:2"/>
<line x1="1656" y1="1212" x2="1328" y2="1000" style="stroke:rgb(255,255,255);stroke-width:2"/>
<line x1="1656" y1="1212" x2="1328" y2="1212" style="stroke:rgb(255,255,255);stroke-width:2"/>
<line x1="1656" y1="1212" x2="1328" y2="788" style="stroke:rgb(255,255,255);stroke-width:2"/>
<line x1="1656" y1="1212" x2="1328" y2="1424" style="stroke:rgb(255,255,255);stroke-width:2"/>
<line x1="1656" y1="1212" x2="1328" y2="576" style="stroke:rgb(255,255,255);stroke-width:2"/>
<line x1="1656" y1="1212" x2="1328" y2="1636" style="stroke:rgb(255,255,255);stroke-width:2"/>
<line x1="1656" y1="1212" x2="1328" y2="364" style="stroke:rgb(255,255,255);stroke-width:2"/>
<line x1="1656" y1="1212" x2="1328" y2="1848" style="stroke:rgb(255,255,255);stroke-width:2"/>
<line x1="1656" y1="1212" x2="1328" y2="152" style="stroke:rgb(255,255,255);stroke-width:2"/>
<line x1="1656" y1="788" x2="1328" y2="1000" style="stroke:rgb(255,255,255);stroke-width:2"/>
<line x1="1656" y1="788" x2="1328" y2="1212" style="stroke:rgb(255,255,255);stroke-width:2"/>
<line x1="1656" y1="788" x2="1328" y2="788" style="stroke:rgb(255,255,255);stroke-width:2"/>
<line x1="1656" y1="788" x2="1328" y2="1424" style="stroke:rgb(255,255,255);stroke-width:2"/>
<line x1="1656" y1="788" x2="1328" y2="576" style="stroke:rgb(255,255,255);stroke-width:2"/>
<line x1="1656" y1="788" x2="1328" y2="1636" style="stroke:rgb(255,255,255);stroke-width:2"/>
<line x1="1656" y1="788" x2="1328" y2="364" style="stroke:rgb(255,255,255);stroke-width:2"/>
<line x1="1656" y1="788" x2="1328" y2="1848" style="stroke:rgb(255,255,255);stroke-width:2"/>
<line x1="1656" y1="788" x2="1328" y2="152" style="stroke:rgb(255,255,255);stroke-width:2"/>
<line x1="1656" y1="1424" x2="1328" y2="1000" style="stroke:rgb(255,255,255);stroke-width:2"/>
<line x1="1656" y1="1424" x2="1328" y2="1212" style="stroke:rgb(255,255,255);stroke-width:2"/>
<line x1="1656" y1="1424" x2="1328" y2="788" style="stroke:rgb(255,255,255);stroke-width:2"/>
<line x1="1656" y1="1424" x2="1328" y2="1424" style="stroke:rgb(255,255,255);stroke-width:2"/>
<line x1="1656" y1="1424" x2="1328" y2="576" style="stroke:rgb(255,255,255);stroke-width:2"/>
<line x1="1656" y1="1424" x2="1328" y2="1636" style="stroke:rgb(255,255,255);stroke-width:2"/>
<line x1="1656" y1="1424" x2="1328" y2="364" style="stroke:rgb(255,255,255);stroke-width:2"/>
<line x1="1656" y1="1424" x2="1328" y2="1848" style="stroke:rgb(255,255,255);stroke-width:2"/>
<line x1="1656" y1="1424" x2="1328" y2="152" style="stroke:rgb(255,255,255);stroke-width:2"/>
<line x1="1656" y1="576" x2="1328" y2="1000" style="stroke:rgb(255,255,255);stroke-width:2"/>
<line x1="1656" y1="576" x2="1328" y2="1212" style="stroke:rgb(255,255,255);stroke-width:2"/>
<line x1="1656" y1="576" x2="1328" y2="788" style="stroke:rgb(255,255,255);stroke-width:2"/>
<line x1="1656" y1="576" x2="1328" y2="1424" style="stroke:rgb(255,255,255);stroke-width:2"/>
<line x1="1656" y1="576" x2="1328" y2="576" style="stroke:rgb(255,255,255);stroke-width:2"/>
<line x1="1656" y1="576" x2="1328" y2="1636" style="stroke:rgb(255,255,255);stroke-width:2"/>
<line x1="1656" y1="576" x2="1328" y2="364" style="stroke:rgb(255,255,255);stroke-width:2"/>
<line x1="1656" y1="576" x2="1328" y2="1848" style="stroke:rgb(255,255,255);stroke-width:2"/>
<line x1="1656" y1="576" x2="1328" y2="152" style="stroke:rgb(255,255,255);stroke-width:2"/>
<line x1="1656" y1="1636" x2="1328" y2="1000" style="stroke:rgb(255,255,255);stroke-width:2"/>
<line x1="1656" y1="1636" x2="1328" y2="1212" style="stroke:rgb(255,255,255);stroke-width:2"/>
<line x1="1656" y1="1636" x2="1328" y2="788" style="stroke:rgb(255,255,255);stroke-width:2"/>
<line x1="1656" y1="1636" x2="1328" y2="1424" style="stroke:rgb(255,255,255);stroke-width:2"/>
<line x1="1656" y1="1636" x2="1328" y2="576" style="stroke:rgb(255,255,255);stroke-width:2"/>
<line x1="1656" y1="1636" x2="1328" y2="1636" style="stroke:rgb(255,255,255);stroke-width:2"/>
<line x1="1656" y1="1636" x2="1328" y2="364" style="stroke:rgb(255,255,255);stroke-width:2"/>
<line x1="1656" y1="1636" x2="1328" y2="1848" style="stroke:rgb(255,255,255);stroke-width:2"/>
<line x1="1656" y1="1636" x2="1328" y2="152" style="stroke:rgb(255,255,255);stroke-width:2"/>
<line x1="1656" y1="364" x2="1328" y2="1000" style="stroke:rgb(255,255,255);stroke-width:2"/>
<line x1="1656" y1="364" x2="1328" y2="1212" style="stroke:rgb(255,255,255);stroke-width:2"/>
<line x1="1656" y1="364" x2="1328" y2="788" style="stroke:rgb(255,255,255);stroke-width:2"/>
<line x1="1656" y1="364" x2="1328" y2="1424" style="stroke:rgb(255,255,255);stroke-width:2"/>
<line x1="1656" y1="364" x2="1328" y2="576" style="stroke:rgb(255,255,255);stroke-width:2"/>
<line x1="1656" y1="364" x2="1328" y2="1636" style="stroke:rgb(255,255,255);stroke-width:2"/>
<line x1="1656" y1="364" x2="1328" y2="364" style="stroke:rgb(255,255,255);stroke-width:2"/>
<line x1="1656" y1="364" x2="1328" y2="1848" style="stroke:rgb(255,255,255);stroke-width:2"/>
<line x1="1656" y1="364" x2="1328" y2="152" style="stroke:rgb(255,255,255);stroke-width:2"/>
<line x1="1656" y1="1848" x2="1328" y2="1000" style="stroke:rgb(255,255,255);stroke-width:2"/>
<line x1="1656" y1="1848" x2="1328" y2="1212" style="stroke:rgb(255,255,255);stroke-width:2"/>
<line x1="1656" y1="1848" x2="1328" y2="788" style="stroke:rgb(255,255,255);stroke-width:2"/>
<line x1="1656" y1="1848" x2="1328" y2="1424" style="stroke:rgb(255,255,255);stroke-width:2"/>
<line x1="1656" y1="1848" x2="1328" y2="576" style="stroke:rgb(255,255,255);stroke-width:2"/>
<line x1="1656" y1="1848" x2="1328" y2="1636" style="stroke:rgb(255,255,255);stroke-width:2"/>
<line x1="1656" y1="1848" x2="1328" y2="364" style="stroke:rgb(255,255,255);stroke-width:2"/>
<line x1="1656" y1="1848" x2="1328" y2="1848" style="stroke:rgb(255,255,255);stroke-width:2"/>
<line x1="1656" y1="1848" x2="1328" y2="152" style="stroke:rgb(255,255,255);stroke-width:2"/>
<line x1="1656" y1="152" x2="1328" y2="1000" style="stroke:rgb(255,255,255);stroke-width:2"/>
<line x1="1656" y1="152" x2="1328" y2="1212" style="stroke:rgb(255,255,255);stroke-width:2"/>
<line x1="1656" y1="152" x2="1328" y2="788" style="stroke:rgb(255,255,255);stroke-width:2"/>
<line x1="1656" y1="152" x2="1328" y2="1424" style="stroke:rgb(255,255,255);stroke-width:2"/>
<line x1="1656" y1="152" x2="1328" y2="576" style="stroke:rgb(255,255,255);stroke-width:2"/>
<line x1="1656" y1="152" x2="1328" y2="1636" style="stroke:rgb(255,255,255);stroke-width:2"/>
<line x1="1656" y1="152" x2="1328" y2="364" style="stroke:rgb(255,255,255);stroke-width:2"/>
<line x1="1656" y1="152" x2="1328" y2="1848" style="stroke:rgb(255,255,255);stroke-width:2"/>
<line x1="1656" y1="152" x2="1328" y2="152" style="stroke:rgb(255,255,255);stroke-width:2"/>
<line x1="1985" y1="1000" x2="1656" y2="1000" style="stroke:rgb(255,255,255);stroke-width:2"/>
<line x1="1985" y1="1000" x2="1656" y2="1212" style="stroke:rgb(255,255,255);stroke-width:2"/>
<line x1="1985" y1="1000" x2="1656" y2="788" style="stroke:rgb(255,255,255);stroke-width:2"/>
<line x1="1985" y1="1000" x2="1656" y2="1424" style="stroke:rgb(255,255,255);stroke-width:2"/>
<line x1="1985" y1="1000" x2="1656" y2="576" style="stroke:rgb(255,255,255);stroke-width:2"/>
<line x1="1985" y1="1000" x2="1656" y2="1636" style="stroke:rgb(255,255,255);stroke-width:2"/>
<line x1="1985" y1="1000" x2="1656" y2="364" style="stroke:rgb(255,255,255);stroke-width:2"/>
<line x1="1985" y1="1000" x2="1656" y2="1848" style="stroke:rgb(255,255,255);stroke-width:2"/>
<line x1="1985" y1="1000" x2="1656" y2="152" style="stroke:rgb(255,255,255);stroke-width:2"/>
<line x1="1985" y1="1212" x2="1656" y2="1000" style="stroke:rgb(255,255,255);stroke-width:2"/>
<line x1="1985" y1="1212" x2="1656" y2="1212" style="stroke:rgb(255,255,255);stroke-width:2"/>
<line x1="1985" y1="1212" x2="1656" y2="788" style="stroke:rgb(255,255,255);stroke-width:2"/>
<line x1="1985" y1="1212" x2="1656" y2="1424" style="stroke:rgb(255,255,255);stroke-width:2"/>
<line x1="1985" y1="1212" x2="1656" y2="576" style="stroke:rgb(255,255,255);stroke-width:2"/>
<line x1="1985" y1="1212" x2="1656" y2="1636" style="stroke:rgb(255,255,255);stroke-width:2"/>
<line x1="1985" y1="1212" x2="1656" y2="364" style="stroke:rgb(255,255,255);stroke-width:2"/>
<line x1="1985" y1="1212" x2="1656" y2="1848" style="stroke:rgb(255,255,255);stroke-width:2"/>
<line x1="1985" y1="1212" x2="1656" y2="152" style="stroke:rgb(255,255,255);stroke-width:2"/>
<line x1="1985" y1="788" x2="1656" y2="1000" style="stroke:rgb(255,255,255);stroke-width:2"/>
<line x1="1985" y1="788" x2="1656" y2="1212" style="stroke:rgb(255,255,255);stroke-width:2"/>
<line x1="1985" y1="788" x2="1656" y2="788" style="stroke:rgb(255,255,255);stroke-width:2"/>
<line x1="1985" y1="788" x2="1656" y2="1424" style="stroke:rgb(255,255,255);stroke-width:2"/>
<line x1="1985" y1="788" x2="1656" y2="576" style="stroke:rgb(255,255,255);stroke-width:2"/>
<line x1="1985" y1="788" x2="1656" y2="1636" style="stroke:rgb(255,255,255);stroke-width:2"/>
<line x1="1985" y1="788" x2="1656" y2="364" style="stroke:rgb(255,255,255);stroke-width:2"/>
<line x1="1985" y1="788" x2="1656" y2="1848" style="stroke:rgb(255,255,255);stroke-width:2"/>
<line x1="1985" y1="788" x2="1656" y2="152" style="stroke:rgb(255,255,255);stroke-width:2"/>
<line x1="1985" y1="1424" x2="1656" y2="1000" style="stroke:rgb(255,255,255);stroke-width:2"/>
<line x1="1985" y1="1424" x2="1656" y2="1212" style="stroke:rgb(255,255,255);stroke-width:2"/>
<line x1="1985" y1="1424" x2="1656" y2="788" style="stroke:rgb(255,255,255);stroke-width:2"/>
<line x1="1985" y1="1424" x2="1656" y2="1424" style="stroke:rgb(255,255,255);stroke-width:2"/>
<line x1="1985" y1="1424" x2="1656" y2="576" style="stroke:rgb(255,255,255);stroke-width:2"/>
<line x1="1985" y1="1424" x2="1656" y2="1636" style="stroke:rgb(255,255,255);stroke-width:2"/>
<line x1="1985" y1="1424" x2="1656" y2="364" style="stroke:rgb(255,255,255);stroke-width:2"/>
<line x1="1985" y1="1424" x2="1656" y2="1848" style="stroke:rgb(255,255,255);stroke-width:2"/>
<line x1="1985" y1="1424" x2="1656" y2="152" style="stroke:rgb(255,255,255);stroke-width:2"/>
<line x1="1985" y1="576" x2="1656" y2="1000" style="stroke:rgb(255,255,255);stroke-width:2"/>
<line x1="1985" y1="576" x2="1656" y2="1212" style="stroke:rgb(255,255,255);stroke-width:2"/>
<line x1="1985" y1="576" x2="1656" y2="788" style="stroke:rgb(255,255,255);stroke-width:2"/>
<line x1="1985" y1="576" x2="1656" y2="1424" style="stroke:rgb(255,255,255);stroke-width:2"/>
<line x1="1985" y1="576" x2="1656" y2="576" style="stroke:rgb(255,255,255);stroke-width:2"/>
<line x1="1985" y1="576" x2="1656" y2="1636" style="stroke:rgb(255,255,255);stroke-width:2"/>
<line x1="1985" y1="576" x2="1656" y2="364" style="stroke:rgb(255,255,255);stroke-width:2"/>
<line x1="1985" y1="576" x2="1656" y2="1848" style="stroke:rgb(255,255,255);stroke-width:2"/>
<line x1="1985" y1="576" x2="1656" y2="152" style="stroke:rgb(255,255,255);stroke-width:2"/>
<line x1="1985" y1="1636" x2="1656" y2="1000" style="stroke:rgb(255,255,255);stroke-width:2"/>
<line x1="1985" y1="1636" x2="1656" y2="1212" style="stroke:rgb(255,255,255);stroke-width:2"/>
<line x1="1985" y1="1636" x2="1656" y2="788" style="stroke:rgb(255,255,255);stroke-width:2"/>
<line x1="1985" y1="1636" x2="1656" y2="1424" style="stroke:rgb(255,255,255);stroke-width:2"/>
<line x1="1985" y1="1636" x2="1656" y2="576" style="stroke:rgb(255,255,255);stroke-width:2"/>
<line x1="1985" y1="1636" x2="1656" y2="1636" style="stroke:rgb(255,255,255);stroke-width:2"/>
<line x1="1985" y1="1636" x2="1656" y2="364" style="stroke:rgb(255,255,255);stroke-width:2"/>
<line x1="1985" y1="1636" x2="1656" y2="1848" style="stroke:rgb(255,255,255);stroke-width:2"/>
<line x1="1985" y1="1636" x2="1656" y2="152" style="stroke:rgb(255,255,255);stroke-width:2"/>
<line x1="1985" y1="364" x2="1656" y2="1000" style="stroke:rgb(255,255,255);stroke-width:2"/>
<line x1="1985" y1="364" x2="1656" y2="1212" style="stroke:rgb(255,255,255);stroke-width:2"/>
<line x1="1985" y1="364" x2="1656" y2="788" style="stroke:rgb(255,255,255);stroke-width:2"/>
<line x1="1985" y1="364" x2="1656" y2="1424" style="stroke:rgb(255,255,255);stroke-width:2"/>
<line x1="1985" y1="364" x2="1656" y2="576" style="stroke:rgb(255,255,255);stroke-width:2"/>
<line x1="1985" y1="364" x2="1656" y2="1636" style="stroke:rgb(255,255,255);stroke-width:2"/>
<line x1="1985" y1="364" x2="1656" y2="364" style="stroke:rgb(255,255,255);stroke-width:2"/>
<line x1="1985" y1="364" x2="1656" y2="1848" style="stroke:rgb(255,255,255);stroke-width:2"/>
<line x1="1985" y1="364" x2="1656" y2="152" style="stroke:rgb(255,255,255);stroke-width:2"/>
<line x1="1985" y1="1848" x2="1656" y2="1000" style="stroke:rgb(255,255,255);stroke-width:2"/>
<line x1="1985" y1="1848" x2="1656" y2="1212" style="stroke:rgb(255,255,255);stroke-width:2"/>
<line x1="1985" y1="1848" x2="1656" y2="788" style="stroke:rgb(255,255,255);stroke-width:2"/>
<line x1="1985" y1="1848" x2="1656" y2="1424" style="stroke:rgb(255,255,255);stroke-width:2"/>
<line x1="1985" y1="1848" x2="1656" y2="576" style="stroke:rgb(255,255,255);stroke-width:2"/>
<line x1="1985" y1="1848" x2="1656" y2="1636" style="stroke:rgb(255,255,255);stroke-width:2"/>
<line x1="1985" y1="1848" x2="1656" y2="364" style="stroke:rgb(255,255,255);stroke-width:2"/>
<line x1="1985" y1="1848" x2="1656" y2="1848" style="stroke:rgb(255,255,255);stroke-width:2"/>
<line x1="1985" y1="1848" x2="1656" y2="152" style="stroke:rgb(255,255,255);stroke-width:2"/>
<line x1="1985" y1="152" x2="1656" y2="1000" style="stroke:rgb(255,255,255);stroke-width:2"/>
<line x1="1985" y1="152" x2="1656" y2="1212" style="stroke:rgb(255,255,255);stroke-width:2"/>
<line x1="1985" y1="152" x2="1656" y2="788" style="stroke:rgb(255,255,255);stroke-width:2"/>
<line x1="1985" y1="152" x2="1656" y2="1424" style="stroke:rgb(255,255,255);stroke-width:2"/>
<line x1="1985" y1="152" x2="1656" y2="576" style="stroke:rgb(255,255,255);stroke-width:2"/>
<line x1="1985" y1="152" x2="1656" y2="1636" style="stroke:rgb(255,255,255);stroke-width:2"/>
<line x1="1985" y1="152" x2="1656" y2="364" style="stroke:rgb(255,255,255);stroke-width:2"/>
<line x1="1985" y1="152" x2="1656" y2="1848" style="stroke:rgb(255,255,255);stroke-width:2"/>
<line x1="1985" y1="152" x2="1656" y2="152" style="stroke:rgb(255,255,255);stroke-width:2"/>
<circle cx="15" cy="1000" r="5" style="fill:rgb(255,0,0)"/>
<circle cx="15" cy="1212" r="5" style="fill:rgb(255,0,0)"/>
<circle cx="15" cy="788" r="5" style="fill:rgb(255,0,0)"/>
<circle cx="15" cy="1424" r="5" style="fill:rgb(255,0,0)"/>
<circle cx="15" cy="576" r="5" style="fill:rgb(255,0,0)"/>
<circle cx="15" cy="1636" r="5" style="fill:rgb(255,0,0)"/>
<circle cx="15" cy="364" r="5" style="fill:rgb(255,0,0)"/>
<circle cx="15" cy="1848" r="5" style="fill:rgb(255,0,0)"/>
<circle cx="15" cy="152" r="5" style="fill:rgb(255,0,0)"/>
<circle cx="343" cy="1000" r="5" style="fill:rgb(255,0,0)"/>
<circle cx="343" cy="1212" r="5" style="fill:rgb(255,0,0)"/>
<circle cx="343" cy="788" r="5" style="fill:rgb(255,0,0)"/>
<circle cx="343" cy="1424" r="5" style="fill:rgb(255,0,0)"/>
<circle cx="343" cy="576" r="5" style="fill:rgb(255,0,0)"/>
<circle cx="343" cy="1636" r="5" style="fill:rgb(255,0,0)"/>
<circle cx="343" cy="364" r="5" style="fill:rgb(255,0,0)"/>
<circle cx="343" cy="1848" r="5" style="fill:rgb(255,0,0)"/>
<circle cx="343" cy="152" r="5" style="fill:rgb(255,0,0)"/>
<circle cx="671" cy="1000" r="5" style="fill:rgb(255,0,0)"/>
<circle cx="671" cy="1212" r="5" style="fill:rgb(255,0,0)"/>
<circle cx="671" cy="788" r="5" style="fill:rgb(255,0,0)"/>
<circle cx="671" cy="1424" r="5" style="fill:rgb(255,0,0)"/>
<circle cx="671" cy="576" r="5" style="fill:rgb(255,0,0)"/>
<circle cx="671" cy="1636" r="5" style="fill:rgb(255,0,0)"/>
<circle cx="671" cy="364" r="5" style="fill:rgb(255,0,0)"/>
<circle cx="671" cy="1848" r="5" style="fill:rgb(255,0,0)"/>
<circle cx="671" cy="152" r="5" style="fill:rgb(255,0,0)"/>
<circle cx="1000" cy="1000" r="5" style="fill:rgb(255,0,0)"/>
<circle cx="1000" cy="1212" r="5" style="fill:rgb(255,0,0)"/>
<circle cx="1000" cy="788" r="5" style="fill:rgb(255,0,0)"/>
<circle cx="1000" cy="1424" r="5" style="fill:rgb(255,0,0)"/>
<circle cx="1000" cy="576" r="5" style="fill:rgb(255,0,0)"/>
<circle cx="1000" cy="1636" r="5" style="fill:rgb(255,0,0)"/>
<circle cx="1000" cy="364" r="5" style="fill:rgb(255,0,0)"/>
<circle cx="1000" cy="1848" r="5" style="fill:rgb(255,0,0)"/>
<circle cx="1000" cy="152" r="5" style="fill:rgb(255,0,0)"/>
<circle cx="1328" cy="1000" r="5" style="fill:rgb(255,0,0)"/>
<circle cx="1328" cy="1212" r="5" style="fill:rgb(255,0,0)"/>
<circle cx="1328" cy="788" r="5" style="fill:rgb(255,0,0)"/>
<circle cx="1328" cy="1424" r="5" style="fill:rgb(255,0,0)"/>
<circle cx="1328" cy="576" r="5" style="fill:rgb(255,0,0)"/>
<circle cx="1328" cy="1636" r="5" style="fill:rgb(255,0,0)"/>
<circle cx="1328" cy="364" r="5" style="fill:rgb(255,0,0)"/>
<circle cx="1328" cy="1848" r="5" style="fill:rgb(255,0,0)"/>
<circle cx="1328" cy="152" r="5" style="fill:rgb(255,0,0)"/>
<circle cx="1656" cy="1000" r="5" style="fill:rgb(255,0,0)"/>
<circle cx="1656" cy="1212" r="5" style="fill:rgb(255,0,0)"/>
<circle cx="1656" cy="788" r="5" style="fill:rgb(255,0,0)"/>
<circle cx="1656" cy="1424" r="5" style="fill:rgb(255,0,0)"/>
<circle cx="1656" cy="576" r="5" style="fill:rgb(255,0,0)"/>
<circle cx="1656" cy="1636" r="5" style="fill:rgb(255,0,0)"/>
<circle cx="1656" cy="364" r="5" style="fill:rgb(255,0,0)"/>
<circle cx="1656" cy="1848" r="5" style="fill:rgb(255,0,0)"/>
<circle cx="1656" cy="152" r="5" style="fill:rgb(255,0,0)"/>
<circle cx="1985" cy="1000" r="5" style="fill:rgb(255,0,0)"/>
<circle cx="1985" cy="1212" r="5" style="fill:rgb(255,0,0)"/>
<circle cx="1985" cy="788" r="5" style="fill:rgb(255,0,0)"/>
<circle cx="1985" cy="1424" r="5" style="fill:rgb(255,0,0)"/>
<circle cx="1985" cy="576" r="5" style="fill:rgb(255,0,0)"/>
<circle cx="1985" cy="1636" r="5" style="fill:rgb(255,0,0)"/>
<circle cx="1985" cy="364" r="5" style="fill:rgb(255,0,0)"/>
<circle cx="1985" cy="1848" r="5" style="fill:rgb(255,0,0)"/>
<circle cx="1985" cy="152" r="5" style="fill:rgb(255,0,0)"/>
</svg>